<svg xmlns="http://www.w3.org/2000/svg" viewBox="0 0 1600 2000" width="1600" height="2000" role="img">
  <defs><linearGradient id="g-concrete-01-2011" x1="0.76" y1="0.07" x2="0.24" y2="0.93">
      <stop offset="0" stop-color="#e2ddd5"/>
      <stop offset="0.42" stop-color="#b3aca2"/>
      <stop offset="1" stop-color="#6f6a63"/>
    </linearGradient><filter id="h-concrete-01-2011" x="-30%" y="-30%" width="160%" height="160%"><feGaussianBlur stdDeviation="117.86"/></filter><filter id="s-concrete-01-2011" x="-25%" y="-25%" width="150%" height="150%"><feGaussianBlur stdDeviation="5.73"/></filter><radialGradient id="l-concrete-01-2011" cx="0.47" cy="0.48" r="0.52">
      <stop offset="0" stop-color="#e2ddd5" stop-opacity="0.57"/>
      <stop offset="1" stop-color="#e2ddd5" stop-opacity="0"/>
    </radialGradient><radialGradient id="v-concrete-01-2011" cx="0.5" cy="0.5" r="0.75">
      <stop offset="0.4" stop-color="#2c2a27" stop-opacity="0"/>
      <stop offset="1" stop-color="#2c2a27" stop-opacity="0.7"/>
    </radialGradient><filter id="n-concrete-01-2011" x="0" y="0" width="100%" height="100%">
      <feTurbulence type="fractalNoise" baseFrequency="0.9" numOctaves="3" seed="2011" result="n"/>
      <feColorMatrix type="saturate" values="0"/>
    </filter></defs>
  <rect width="1600" height="2000" fill="url(#g-concrete-01-2011)"/>
  <g filter="url(#h-concrete-01-2011)"><ellipse cx="936.64" cy="1124.8" rx="628.79" ry="603.88" fill="#b3aca2" opacity="0.38"/><ellipse cx="1716.51" cy="0.19" rx="936.45" ry="438.01" fill="#6f6a63" opacity="0.2"/><ellipse cx="2.48" cy="275.83" rx="605.59" ry="788.78" fill="#6f6a63" opacity="0.28"/><ellipse cx="999.73" cy="146.99" rx="877.07" ry="646.66" fill="#6f6a63" opacity="0.42"/></g>
  <g filter="url(#s-concrete-01-2011)"><rect x="485.19" y="-500" width="99.48" height="3200" fill="#2c2a27" opacity="0.4" transform="rotate(-2.89 534.93 1000)"/><rect x="765.7" y="-500" width="267.93" height="3200" fill="#e2ddd5" opacity="0.52" transform="rotate(-2.89 899.66 1000)"/><rect x="1100.35" y="-500" width="318.55" height="3200" fill="#2c2a27" opacity="0.58" transform="rotate(-2.89 1259.63 1000)"/><rect x="286.99" y="-500" width="195.78" height="3200" fill="#2c2a27" opacity="0.52" transform="rotate(-2.89 384.88 1000)"/><rect x="0" y="1417.87" width="1600" height="2000" fill="#2c2a27" opacity="0.35"/></g>
  <rect width="1600" height="2000" fill="url(#l-concrete-01-2011)" style="mix-blend-mode:screen"/>
  <rect width="1600" height="2000" fill="url(#v-concrete-01-2011)"/>
  <rect width="1600" height="2000" filter="url(#n-concrete-01-2011)" opacity="0.2" style="mix-blend-mode:overlay"/>
</svg>