<svg xmlns="http://www.w3.org/2000/svg" viewBox="0 0 1600 1067" width="1600" height="1067" role="img">
  <defs><linearGradient id="g-interior-02-5022" x1="0.95" y1="0.28" x2="0.05" y2="0.72">
      <stop offset="0" stop-color="#ecdfca"/>
      <stop offset="0.57" stop-color="#c8ad84"/>
      <stop offset="1" stop-color="#8c7457"/>
    </linearGradient><filter id="h-interior-02-5022" x="-30%" y="-30%" width="160%" height="160%"><feGaussianBlur stdDeviation="88.66"/></filter><filter id="s-interior-02-5022" x="-25%" y="-25%" width="150%" height="150%"><feGaussianBlur stdDeviation="8.71"/></filter><radialGradient id="l-interior-02-5022" cx="0.73" cy="0.24" r="0.52">
      <stop offset="0" stop-color="#ecdfca" stop-opacity="0.48"/>
      <stop offset="1" stop-color="#ecdfca" stop-opacity="0"/>
    </radialGradient><radialGradient id="v-interior-02-5022" cx="0.5" cy="0.5" r="0.75">
      <stop offset="0.4" stop-color="#372e25" stop-opacity="0"/>
      <stop offset="1" stop-color="#372e25" stop-opacity="0.7"/>
    </radialGradient><filter id="n-interior-02-5022" x="0" y="0" width="100%" height="100%">
      <feTurbulence type="fractalNoise" baseFrequency="0.9" numOctaves="3" seed="5022" result="n"/>
      <feColorMatrix type="saturate" values="0"/>
    </filter></defs>
  <rect width="1600" height="1067" fill="url(#g-interior-02-5022)"/>
  <g filter="url(#h-interior-02-5022)"><ellipse cx="1150.06" cy="50.6" rx="660.32" ry="316.1" fill="#8c7457" opacity="0.3"/><ellipse cx="1054.39" cy="625.23" rx="643.54" ry="182.82" fill="#8c7457" opacity="0.26"/><ellipse cx="77.94" cy="35.08" rx="486.36" ry="296.63" fill="#c8ad84" opacity="0.36"/><ellipse cx="-135.8" cy="517.06" rx="516.34" ry="315.53" fill="#8c7457" opacity="0.25"/></g>
  <g filter="url(#s-interior-02-5022)"><rect x="812.69" y="-266.75" width="222.38" height="1707.2" fill="#372e25" opacity="0.4" transform="rotate(-5.41 923.88 533.5)"/><rect x="239.54" y="-266.75" width="181.72" height="1707.2" fill="#372e25" opacity="0.45" transform="rotate(-5.41 330.4 533.5)"/><rect x="777.06" y="-266.75" width="174.05" height="1707.2" fill="#ecdfca" opacity="0.25" transform="rotate(-5.41 864.09 533.5)"/><rect x="752.36" y="-266.75" width="410.11" height="1707.2" fill="#372e25" opacity="0.38" transform="rotate(-5.41 957.42 533.5)"/><rect x="0" y="758.03" width="1600" height="1067" fill="#372e25" opacity="0.35"/></g>
  <rect width="1600" height="1067" fill="url(#l-interior-02-5022)" style="mix-blend-mode:screen"/>
  <rect width="1600" height="1067" fill="url(#v-interior-02-5022)"/>
  <rect width="1600" height="1067" filter="url(#n-interior-02-5022)" opacity="0.2" style="mix-blend-mode:overlay"/>
</svg>